# xmcd CD database file
#
# Track frame offsets:
#	150
#	12188
#	24873
#	37178
#	47570
#	59857
#	71319
#	88633
#	99561
#	114190
#	126606
#	142316
#
# Disc length: 2094 seconds
#
# Revision: 1
# Processed by: cddbd v1.5.2PL0 Copyright (c) Steve Scherf et al.
# Submitted via: CDex 1.70beta3
#
DISCID=a9082c0c
DTITLE=Ray Bryant - Cold Turkey
DYEAR=1964
DGENRE=Jazz
TTITLE0=Cold Turkey
TTITLE1=Shake A Lady
TTITLE2=Favela
TTITLE3=Chicago Serenade
TTITLE4=Congolose Children
TTITLE5=Blues March
TTITLE6=O Morro
TTITLE7=Mandecee
TTITLE8=Sometime Ago
TTITLE9=Slip-Up
TTITLE10=Hello Dolly
TTITLE11=I Wish You Love
EXTD=YEAR: 1964
EXTT0=
EXTT1=
EXTT2=
EXTT3=
EXTT4=
EXTT5=
EXTT6=
EXTT7=
EXTT8=
EXTT9=
EXTT10=
EXTT11=
PLAYORDER=
